<svg width="77" height="62" viewBox="0 0 77 62" fill="none" xmlns="http://www.w3.org/2000/svg">
<path d="M76.382 59.1347C76.0216 58.2744 75.3794 57.1214 74.8474 56.3133C74.6805 56.0573 74.662 56.2443 74.5396 56.066C74.3087 55.7336 74.1632 55.3709 73.9172 55.0432C73.8338 54.9326 73.7743 55.1649 73.69 55.0469C73.2434 54.4251 72.9049 53.78 72.4636 53.1369C70.2926 49.9851 68.0928 47.0049 65.7324 43.991C65.4259 43.6006 65.0795 43.1936 64.7108 42.7589C64.1601 42.1101 63.5835 41.4503 63.1115 40.8147C63.0202 40.6916 63.1919 40.6681 63.1828 40.6379C63.0335 40.1663 62.9017 40.4737 62.6799 40.2704C61.7995 39.4637 60.9214 38.4912 60.1913 37.6178C59.8807 37.2463 60.4254 37.4025 59.9727 37.1575C59.9415 37.1404 59.9109 37.3369 59.8082 37.2514C59.5759 37.0573 59.2037 36.6246 59.0332 36.4656C58.7043 36.1595 58.6537 36.1053 58.3557 35.8034C57.9468 35.3919 57.4043 34.9602 56.9846 34.5008C56.8953 34.4024 57.1333 34.4103 57.0005 34.2428C56.8679 34.075 56.4539 33.6951 56.2907 33.5923C56.1276 33.4892 56.099 33.6362 56.0548 33.634C55.6884 33.6213 55.4486 32.9331 55.3923 32.8699C54.3751 31.7287 53.2718 31.0046 52.1924 30.0752C51.3729 29.3694 50.5251 28.5799 49.7204 27.9375C48.7617 27.1732 47.8926 26.5979 46.9602 25.8599C46.8617 25.7823 47.0933 25.7224 46.9731 25.6273C45.6925 24.6147 44.3808 23.667 42.9904 22.8222C42.8512 22.738 42.924 22.9944 42.7793 22.9184C41.8921 22.4457 40.4231 21.8139 40.3503 20.8872C39.7796 20.5253 39.092 20.0893 38.5106 19.8706C38.1366 19.73 38.3474 20.0907 37.9962 19.7601C37.9169 19.6858 38.121 19.633 37.9954 19.5315C37.4694 19.1066 36.818 18.733 36.3082 18.2974C36.2037 18.2078 36.3127 18.1102 36.2944 18.0675C36.1354 17.7144 35.4954 17.7019 35.3838 17.6584C34.5325 17.321 34.0247 16.904 33.3177 16.4526C33.1538 16.3481 33.45 16.3129 33.2959 16.2067C32.4994 15.6603 31.6459 15.134 30.7981 14.6952C30.6098 14.5984 30.6866 14.8391 30.5922 14.7999C30.1766 14.6249 30.2628 14.3172 29.8641 14.143C29.7806 14.1062 29.7494 14.2506 29.7274 14.2547C29.382 14.3191 29.3752 13.914 29.3236 13.8726C28.6803 13.3452 28.0324 13.3552 27.3816 12.8862C27.303 12.8293 27.5812 12.797 27.3548 12.6461C26.7228 12.2241 26.06 11.8033 25.3997 11.403C24.4634 10.8348 23.5303 10.3258 22.5869 9.86888C22.334 9.74642 22.4405 9.96108 22.417 9.96619C22.0422 10.0418 22.0555 9.65733 21.984 9.60156C21.396 9.15808 20.6885 9.09355 20.441 8.49946C17.6994 7.18237 14.9899 5.67244 11.9526 5.14551C11.9147 5.13868 11.9327 5.31875 11.8577 5.30457C10.9424 5.14047 11.1877 4.94211 10.6608 4.48168C10.5291 4.36626 9.97234 4.63594 9.93216 4.65727C9.7619 4.72738 9.86553 5.00414 9.81116 5.01319C9.36551 5.08307 9.6059 4.28736 9.02997 4.18471C9.01222 4.18305 9.06009 4.34529 9.01053 4.35205C8.8595 4.3741 8.71884 4.29013 8.56698 4.31973C8.22286 4.39071 8.0532 4.76931 7.58192 4.47958C7.5202 4.44297 7.67744 3.98642 7.16004 3.95723C6.95783 3.9437 6.06233 3.86952 5.81267 3.8871C5.56377 3.90242 5.72443 4.06309 5.70676 4.06855C5.03213 4.22823 5.27662 4.32582 4.92765 4.59978C4.57256 4.87109 4.71685 4.17766 4.58731 4.08988C4.49479 4.02678 4.21559 4.07398 4.02255 4.11748C3.93625 4.13326 3.86694 4.14991 3.82951 4.16172C3.69617 4.2041 3.84327 4.31725 3.7272 4.33655C2.99339 4.46191 3.46227 3.95421 3.25836 3.81664C3.02993 3.65428 2.73238 3.67511 2.531 3.7446C2.43021 3.77983 2.26133 3.81036 2.1542 3.83887C2.09663 3.85243 2.0437 3.86361 1.99616 3.87005C1.92685 3.87079 1.85735 3.86291 1.81507 3.85239C1.74556 3.83906 1.80927 3.72733 1.8404 3.74313C1.87605 3.75143 1.95332 3.94095 1.89913 4.03338C1.8606 4.1213 1.82467 4.13261 1.82366 4.13567C1.83387 4.12981 1.85917 4.11651 1.89305 4.10163C1.96175 4.07092 2.0749 4.03219 2.14599 4.00894C2.22982 3.98279 2.32913 3.95917 2.45403 3.94522C2.54923 3.93615 2.66136 3.93714 2.80272 3.95536C2.91442 3.96379 3.34264 4.22559 3.61946 3.96666C3.65773 3.92945 3.52624 3.8127 3.73403 3.76215C4.00018 3.69052 4.58717 3.60915 4.8928 3.62787C5.13547 3.64013 4.8757 3.87541 5.17608 3.78462C5.31152 3.74414 5.04539 3.63998 5.30212 3.5743C5.56062 3.50825 6.1812 3.46806 6.44548 3.45415C6.68736 3.44167 6.56581 3.6125 6.5864 3.62199C6.7049 3.67625 7.17749 3.72258 7.22103 3.71961C9.33347 3.60021 11.2316 3.22212 13.2863 3.19479C13.4471 3.19247 13.3499 3.36905 13.3746 3.37046C13.9286 3.41045 13.4689 2.982 13.8449 2.80827C13.8094 3.15737 14.032 3.08182 14.4206 3.0975C14.6079 3.10533 14.5142 3.24513 14.532 3.25786C14.8201 3.44537 14.9974 3.17139 15.0439 3.11475C15.2152 2.90638 15.4286 3.12835 15.5456 2.98885C15.6625 2.85034 15.3644 2.67273 15.7357 2.65338C15.847 2.77107 15.5906 3.11092 15.8755 3.14673C16.9501 3.28327 18.917 2.90542 19.7743 2.81865C20.6147 2.73414 20.9097 2.73481 21.3948 2.65319C22.283 2.50292 21.9836 2.76737 22.5442 2.83171C23.099 2.89504 22.7897 2.32727 22.8563 2.19394C22.9263 2.06022 23.0257 2.18287 23.1185 2.10438C23.2107 2.02595 22.9904 1.95893 23.2187 1.91201C23.4447 1.86585 24.0849 2.03092 24.1873 2.15356C24.3874 2.41594 24.1425 2.74008 24.7291 2.57252C24.7622 2.56268 24.6359 2.42006 24.763 2.39022C25.6885 2.17662 26.6646 2.05369 27.5502 1.73328C27.6803 1.68309 27.8099 1.63107 27.9378 1.57431C28.0736 1.51293 27.8923 1.39163 27.9697 1.35389C28.367 1.13975 28.4653 1.17441 28.5196 1.07187C28.5292 0.928364 28.5084 0.739231 28.2716 0.512647C28.2716 0.960616 27.9721 1.13527 27.3226 1.07408C26.9259 1.03755 27.0114 0.857704 26.7587 0.705009C26.7233 0.683115 26.6368 0.697016 26.5473 0.707263C26.4586 0.718772 26.3671 0.725978 26.3424 0.67847C26.183 0.379708 26.4798 0.068753 25.7697 0.162775C25.7385 0.167469 25.8295 0.330433 25.7223 0.335086C25.0327 0.368358 24.9671 0.0630476 24.2242 0.00687801C23.6406 -0.0371189 22.6101 0.135878 21.9492 0.168611C21.9636 0.653297 21.345 0.544955 21.0878 0.214235C20.6602 0.23299 20.1969 0.223307 19.7846 0.281281C19.6427 0.301118 19.7403 0.438826 19.7228 0.454507C19.4557 0.700472 19.2597 0.382034 19.1667 0.372662C18.1589 0.2868 17.361 0.578709 16.3863 0.421821C16.3527 0.416234 16.265 0.0850537 16.0311 0.354894C16.0168 0.373435 16.3454 0.494991 15.8995 0.551084C15.4492 0.607504 14.6295 0.888715 13.9848 0.851967C13.8467 0.842866 13.4719 0.68861 13.2114 0.864477C13.1797 0.885155 13.1501 0.910109 13.1232 0.939979C13.0892 0.978789 13.1581 1.06066 13.1133 1.12802C12.9782 1.34169 12.7708 1.04653 12.6441 1.39374C12.5189 1.74872 12.2013 2.06257 11.6391 2.23804C11.6243 2.24347 11.3362 2.11932 11.197 2.27951C10.9712 2.52147 10.8447 2.9846 10.859 3.30917C10.8609 3.46608 10.6917 3.37289 10.6893 3.40073C10.6874 4.17485 11.0562 4.69051 11.4184 5.19835C11.6354 5.45125 11.8581 5.7152 12.0934 6.02826C12.2186 6.19224 12.3497 6.81435 12.7125 7.06038C13.1096 7.33254 13.5823 6.51333 13.9398 7.5026C14.0829 7.90383 13.4303 8.86456 14.252 9.25082C14.8074 10.571 15.6349 11.6421 16.0444 13.032C16.0629 13.0945 15.8785 13.3979 15.9423 13.5347C16.0375 13.7369 16.2109 13.7959 16.2822 13.9399C16.5831 14.5416 16.7071 15.1552 16.9587 15.7501C17.0537 15.9765 17.1543 15.8457 17.2666 16.1169C17.3782 16.3885 17.2734 16.636 17.4938 16.9775C17.6604 17.2352 18.119 17.3912 18.2924 17.7563C17.944 17.8934 18.0422 18.1494 18.1019 18.642C18.1131 18.7367 17.9581 18.6826 17.957 18.7294C17.9496 18.9207 18.1034 19.0445 18.0861 19.2292C18.082 19.2741 17.961 19.3149 17.9508 19.3536C17.8594 19.6833 18.2721 20.0486 18.3434 20.1131C18.6154 20.3568 18.4975 20.545 18.6359 20.7539C18.7739 20.9632 18.7649 20.5932 18.8857 20.8499C19.1366 21.3844 19.309 22.1123 19.4543 22.6871C19.5113 22.9155 19.3078 22.7994 19.3121 22.833C19.3469 23.0658 19.4308 23.2884 19.4771 23.4934C19.5074 23.7207 19.5049 23.9215 19.3564 24.092C20.2811 24.2636 19.3235 24.3986 19.6424 25.0486C19.6679 25.0992 20.0882 25.0792 20.1035 24.8614C20.119 24.6442 19.9261 24.3617 19.9681 24.0638C19.9758 23.9905 20.2982 23.5551 20.3165 23.5057C20.3309 23.4586 20.3359 23.4178 20.3333 23.3815L20.3194 23.3036C20.2674 22.9965 19.7771 23.0593 19.7434 23.0468C19.3277 22.8812 19.6191 22.314 19.6143 22.1795C19.5979 21.5771 19.3807 21.1157 19.336 20.6169C19.3056 20.291 19.6856 20.1442 19.601 19.9039C19.3148 19.1008 18.6869 19.0002 18.9014 18.0907C18.9458 17.8958 19.4225 17.9124 18.8914 17.4451C18.858 17.4151 18.4065 17.0936 18.5068 16.7788C18.5196 16.7391 18.6416 16.6959 18.6369 16.6512C18.6029 16.3523 18.4386 16.2052 18.3723 15.89C18.3061 15.575 18.2361 15.1899 18.0609 14.8682C17.9553 14.6734 17.6263 14.5037 17.5322 14.4298C17.2635 14.2216 17.3988 13.8228 17.1378 13.7348C16.8754 13.6467 16.7262 14.0979 16.4154 13.7107C16.7174 13.5618 17.0183 13.3879 17.3174 13.2275C16.8852 12.2552 16.3486 11.3509 15.8885 10.388C15.8317 10.2685 16.0539 10.3094 15.9968 10.1791C15.7539 9.628 15.3989 9.22177 15.1482 8.6484C14.9562 8.20727 14.8621 7.6459 14.6481 7.18225C14.1589 7.10426 13.8887 6.3971 13.5608 5.94982C13.4476 5.79472 13.3685 5.86213 13.2655 5.76448C12.8799 5.40068 13.2959 5.41672 13.2626 5.26888C13.1304 4.71823 12.6158 4.93104 12.2261 4.62977L12.2618 4.68367C12.2064 4.63675 12.1558 4.57673 12.1148 4.50033C12.0917 4.46437 12.2758 3.93691 12.2893 3.89555C12.3302 3.57479 12.1368 3.90934 12.0432 3.75812C11.8852 3.50272 11.7715 3.29301 11.9264 3.18729C11.9844 3.13966 12.1936 3.25985 12.1404 3.03762C12.1353 3.0069 12.036 2.91405 12.0431 2.89682C12.2285 2.57666 12.5045 2.93278 12.746 2.97318C12.9931 3.01281 13.2804 2.61471 13.3543 2.508C13.517 2.2351 13.1547 2.46663 13.1402 2.45144C12.9235 2.25207 13.2384 2.19437 13.4842 2.11252C13.475 2.0538 13.4746 2.00207 13.4808 1.95761C13.5112 1.68905 13.7876 1.6935 13.7403 2.03089C13.7345 2.0672 13.5853 2.0779 13.5157 2.09935C13.5022 2.10339 13.4913 2.10772 13.4842 2.11252C13.4994 2.12856 13.5147 2.14377 13.5302 2.15815C13.8339 2.45199 14.1896 2.40699 14.5591 1.97765C14.7402 1.7685 14.5086 1.58638 15.1746 1.57247C15.4739 1.56916 15.3967 1.86862 15.6663 1.91601C16.2782 2.02515 17.038 1.69304 17.67 1.69662C17.8989 1.6979 17.687 1.86861 17.8426 1.87515C18.256 1.89345 18.6147 1.75776 19.0324 1.80167C19.0703 1.80588 18.9849 1.97415 19.114 1.97122C20.0908 1.95361 20.9444 1.83217 21.9701 1.82653C22.4654 1.82323 23.3526 1.92173 23.865 1.91473C24.7045 1.90175 25.7398 1.72225 26.4761 1.79786C26.5188 1.80213 26.5595 1.80712 26.5985 1.81291C27.0761 1.88534 26.9585 2.04356 27.1416 2.17286C27.3228 2.29972 27.5764 2.28573 27.7625 2.24166C27.9536 2.18285 28.0017 2.16761 27.7158 1.90459C27.7125 1.9038 27.8323 1.99813 27.8873 2.01799C27.9474 2.04442 27.9649 2.0395 27.9668 2.0298C27.9646 2.00747 27.9481 1.97053 27.9949 1.9404C28.0342 1.85993 28.0122 1.88939 27.9286 1.90271C27.8561 1.92432 27.7233 1.91243 27.7158 1.90459C27.6978 1.86115 27.5688 1.83201 27.4261 1.40196C27.3581 1.17701 27.396 0.856926 27.4913 0.675499C27.5773 0.50014 27.6629 0.422585 27.7151 0.375105C27.9069 0.231499 27.8314 0.316352 27.7716 0.337055C27.6276 0.406685 27.3822 0.482717 27.3032 0.490378C27.2135 0.499559 27.2159 0.335647 27.1698 0.34321C27.1588 0.345063 27.1476 0.346934 27.1365 0.348821C26.2941 0.439189 25.0621 0.533772 23.9687 0.720561C23.9484 0.725777 23.997 0.896477 23.949 0.906577C23.2934 1.04995 22.8259 0.875954 22.281 0.794319C21.7205 0.713619 21.2797 0.789713 20.9786 1.113C20.5534 1.10703 19.9649 1.28155 19.6236 1.38542C19.2807 1.48945 19.2075 1.15332 19.1764 1.1487C18.2188 0.996695 17.6758 1.22575 16.6886 1.31615C16.2189 1.35975 15.2833 1.36551 14.7712 1.35783C14.3666 1.35126 14.1289 1.44475 13.7547 1.41515C13.7039 1.41125 13.7462 1.25715 13.7304 1.25221C13.3043 1.09513 13.5253 1.45327 13.4433 1.52418C13.1459 1.78199 12.9625 1.92071 12.4259 1.83804C12.3008 1.81923 11.9117 1.30756 11.6871 1.2892C11.3953 1.26631 11.5152 1.4508 11.211 1.42193C11.185 1.41964 11.1842 1.30161 10.9943 1.31777C10.1185 1.39093 9.17692 1.51485 8.2633 1.55997C8.13814 1.56663 8.28664 1.37002 8.10598 1.37657C7.28151 1.40603 6.33525 1.47567 5.51925 1.62514C5.32347 1.66218 5.45726 1.78331 5.41745 1.82532C5.16592 2.08016 4.74029 1.77206 4.68109 1.77062C3.91508 1.75305 3.23899 1.85145 2.52842 1.9857C2.33366 2.02254 2.21037 2.04974 1.96955 2.10069C1.75507 2.1514 1.58884 2.17813 1.2195 2.30676C1.1208 2.35031 1.09045 2.33423 0.76685 2.53146C0.625823 2.62912 0.429932 2.76449 0.230475 3.09027C0.132683 3.26289 0.0498244 3.43415 0.0101244 3.74997C-0.0253364 4.05025 0.0378944 4.36811 0.143972 4.59859C0.367678 5.06743 0.626621 5.22647 0.790529 5.34078C0.959357 5.44431 0.951104 5.43306 1.02326 5.46982C1.13555 5.52318 1.23117 5.55927 1.32417 5.5914C1.54211 5.66312 1.60368 5.67846 1.72512 5.71334C1.83759 5.74481 1.95686 5.7763 2.08742 5.8093C2.13779 5.82282 2.28714 5.94481 2.5128 6.03248C2.62038 6.07565 2.76415 6.11255 2.86816 6.11661C2.96443 6.11971 3.06063 6.09571 3.14162 6.02668C3.16389 6.00849 3.48317 5.72429 3.7444 5.97402C3.75913 5.98801 3.58451 6.10346 3.80154 6.1433C3.82621 6.14786 3.8561 6.15129 3.89206 6.15322C4.2394 6.17336 4.75866 6.31884 5.19123 6.16165C5.32858 6.11264 5.66163 5.80982 6.0324 6.09053C6.05825 6.1093 6.59652 6.72777 6.83381 6.35081C6.87201 6.28909 6.87861 5.86287 7.30403 6.12543C7.38387 6.17653 7.22016 6.25266 7.43608 6.33637C7.76477 6.46523 8.22828 6.41533 8.60813 6.6719C8.67388 6.71664 8.92547 7.05227 9.20598 6.88773C9.25104 6.86216 9.20563 6.70904 9.33906 6.72029C9.96806 6.77268 10.5828 7.0238 11.2304 7.111C11.4566 7.14175 11.4091 6.88994 11.6587 6.90159C11.9142 6.91473 12.3904 7.00713 12.5997 7.18953C12.8024 7.36957 12.425 7.6223 12.7695 7.77384C14.2595 8.43557 15.847 8.90069 17.3535 9.60933C17.5777 9.71536 17.3346 9.739 17.6633 9.90645C18.8711 10.5142 20.8296 11.7476 21.9884 12.1236C22.9058 12.414 21.9772 11.6626 22.6419 11.9558C22.9638 12.0991 23.0792 12.6645 23.1371 12.7157C23.48 13.0139 23.8166 13.1955 24.1547 13.3773C24.4224 13.5208 24.6895 13.6619 24.962 13.8637C25.0882 13.9572 24.867 14.0201 24.9755 14.0981C25.3469 14.367 25.7826 14.551 26.145 14.7956C26.3063 14.905 26.2084 14.9978 26.3631 15.0832C26.7335 15.2897 27.0821 15.4445 27.5021 15.5647C27.5402 15.5756 27.4095 15.301 27.6811 15.4652C28.1124 15.7264 28.721 15.9682 29.1459 16.3854C29.2724 16.5102 29.1177 16.7655 29.5446 16.7925C29.6343 16.7985 29.7414 16.4417 29.9451 16.9385C29.9815 17.0226 30.3682 17.7647 30.8177 17.733C30.9352 17.7242 31.301 17.6102 31.4498 17.7606C31.4696 17.782 31.2878 17.8558 31.4244 17.9622C31.9067 18.3344 32.4592 18.6711 32.9537 19.0527C33.0865 19.1555 32.7871 19.1586 32.9878 19.3074C33.5433 19.7191 34.275 20.1489 34.8661 20.4785C35.0816 20.598 35.016 20.3896 35.0392 20.387C35.4136 20.3434 35.3741 20.7117 35.4431 20.7807C35.876 21.207 36.3392 21.3322 36.7707 21.6731C36.8902 21.767 36.7133 21.8365 36.7305 21.865C36.9131 22.1534 36.8778 21.7898 37.0594 21.8754C37.5715 22.1168 38.0693 22.4727 38.5218 22.8096C38.6875 22.9333 38.3933 22.9506 38.5431 23.0599C39.4223 23.7062 40.36 24.3455 41.2851 24.8874C41.4587 24.9887 41.4382 24.8017 41.4907 24.8002C41.8551 24.787 42.0189 25.2823 42.0803 25.3629C42.3598 25.7304 42.5718 25.7325 42.8714 25.9817C44.3387 27.2025 46.2482 28.5678 47.6755 29.657C49.5333 31.0749 51.0023 32.1508 52.6328 33.6671C52.7363 33.7635 52.5058 33.8057 52.5932 33.8905C53.7263 34.9782 54.8971 35.9899 55.9684 37.1392C56.0564 37.2332 55.8007 37.2264 55.9374 37.3814C56.2168 37.7001 56.598 38.0758 56.9348 38.3449C57.0989 38.4765 57.014 38.1697 57.1771 38.3046C57.5572 38.6189 57.927 38.993 58.2473 39.3816C58.3832 39.5472 58.0322 39.4324 58.2187 39.6379C59.4857 41.0425 60.6629 42.4651 62.0236 43.8198C62.1167 43.9126 62.4768 43.7777 62.5922 44.0419C62.5245 44.1207 62.4291 44.1929 62.3486 44.2665C62.3959 44.3307 62.4433 44.3948 62.4906 44.4588C64.1113 46.6535 65.7918 48.735 67.3408 50.9543C67.4087 51.0518 67.1327 50.9927 67.2629 51.1815C68.0078 52.264 68.6651 53.3537 69.5416 54.3833C69.6279 54.4854 69.8821 54.2466 70.0427 54.6022C70.0754 54.6716 70.3441 55.1948 70.3583 55.3623C70.3596 55.3861 70.1665 55.3752 70.263 55.5433C70.8162 56.5036 71.4099 57.4638 72.0156 58.3919C72.1117 58.5381 72.1745 58.2948 72.2439 58.398C72.7468 59.1478 73.052 60.0675 73.5866 60.8026C73.9603 61.3107 74.1179 60.9738 74.5313 61.1273C74.5859 61.1496 74.8129 61.4977 74.9699 61.417C75.3337 61.1993 75.6234 60.808 76.0274 60.5989C76.1316 60.5839 76.1345 60.7408 76.2647 60.5358C76.2832 60.5392 76.2436 60.3518 76.2764 60.2461C76.3018 60.1811 76.4877 60.1599 76.5047 60.0496C76.5233 59.941 76.3459 59.9162 76.333 59.71C76.3252 59.5097 76.5352 59.4963 76.382 59.1347ZM18.0825 1.84722C17.7681 2.03076 17.6826 1.43676 18.0427 1.55741C18.0601 1.56395 18.0988 1.83816 18.0825 1.84722ZM15.9344 11.5532C15.5141 11.2816 15.7351 10.8508 16.0501 11.0339C16.3656 11.2202 16.0621 11.6368 15.9344 11.5532ZM17.4967 15.6848C17.123 15.2988 17.8824 14.9127 17.9182 15.4751C17.9205 15.5078 17.5185 15.7075 17.4967 15.6848ZM73.937 59.7751C73.9461 59.7754 74.0667 60.0035 74.0635 60.0147C73.954 60.2228 73.7108 59.7626 73.937 59.7751ZM18.7282 19.878C18.5738 19.7633 18.5674 19.3002 18.7609 19.4406C18.9172 19.5538 18.9212 20.0214 18.7282 19.878ZM1.693 4.11788C1.69179 4.11216 1.90058 4.17181 1.89254 4.21918C1.81706 4.37339 1.54154 4.22042 1.693 4.11788ZM20.3809 27.0905C20.1529 26.0115 19.3258 25.5223 19.6362 26.656C19.691 26.8626 19.7672 26.1623 19.8816 26.4167C20.0907 26.8857 19.7158 27.2879 20.0294 27.7488C20.0875 27.8332 20.3967 27.1528 20.3815 27.0884C20.3813 27.0891 20.3811 27.0898 20.3809 27.0905ZM17.9407 2.57613C17.933 2.58456 17.6782 2.60805 17.6711 2.60061C17.5201 2.41979 18.0368 2.37217 17.9407 2.57613ZM12.5744 5.50898C12.5909 5.49507 13.1806 5.67488 13.1885 5.69551C13.3855 6.08858 12.2209 5.73431 12.5744 5.50898ZM21.9388 0.181574C21.6556 -0.00894585 21.3126 -0.0287352 21.0891 0.213974C21.3711 0.197848 21.6563 0.193965 21.9388 0.181574Z" fill="#161616"/>
</svg>
