<svg width="13" height="13" viewBox="0 0 13 13" fill="none" xmlns="http://www.w3.org/2000/svg">
<path d="M8.43616 12.1868C8.1724 12.2084 7.88491 12.1016 7.68499 11.9833C7.62095 11.9462 7.67733 11.8494 7.63572 11.8193C7.55406 11.7603 7.45987 11.7929 7.3849 11.7255C7.35989 11.7026 7.43296 11.547 7.40612 11.5267C7.26054 11.4171 7.09952 11.4212 6.94769 11.3442C6.36688 11.0478 5.80842 10.7914 5.25051 10.5148C5.04443 10.4177 4.87092 10.3164 4.70693 10.2134C4.45916 10.0577 4.25638 9.76165 3.99185 9.67662C3.96076 9.66675 3.89934 9.80205 3.88782 9.80922C3.70905 9.91723 3.89262 9.6809 3.86188 9.61506C3.73911 9.35396 3.52732 9.19971 3.30726 9.12261C3.21362 9.09028 3.13254 9.38764 3.14241 9.19715C3.14295 9.18419 3.24962 9.06708 3.23694 9.03867C3.20817 8.9746 3.09894 8.93564 3.06782 8.90005C3.0081 8.83069 2.99533 8.82407 2.92723 8.77666C2.8512 8.72236 2.79146 8.61844 2.70602 8.56376C2.68639 8.55117 2.66575 8.54079 2.64366 8.53356C2.61642 8.52509 2.55781 8.67884 2.50611 8.6772C2.45523 8.67616 2.36396 8.59798 2.3539 8.54507C2.3425 8.49134 2.42797 8.39703 2.43858 8.36925C2.53037 8.13645 2.22835 8.33727 2.20847 8.33325C1.86552 8.26407 1.75908 7.9417 1.52509 7.74838C1.34675 7.60144 1.11437 7.479 0.953409 7.30507C0.761394 7.09303 0.666145 6.86608 0.467429 6.58667C0.446281 6.5553 0.310133 6.69399 0.282335 6.65257C0.247387 6.5996 0.212229 6.54111 0.17701 6.47039C-0.0901129 5.86224 -0.00381196 5.50927 0.105295 5.1784C0.119574 5.14202 0.283354 5.19518 0.307535 5.16C0.348108 5.09984 0.405017 5.03294 0.450639 4.96521C0.576324 4.67623 0.70462 4.49964 0.364594 4.07638C0.528872 3.88237 0.736233 3.72885 0.948783 3.74174C1.08475 3.75159 1.12438 3.95084 1.16577 3.82047C1.17557 3.79137 1.05268 3.68631 1.07598 3.65133C1.12504 3.57817 1.19339 3.52816 1.25826 3.4794C1.34792 3.41405 1.43602 3.35696 1.50741 3.27743C1.53632 3.24495 1.46703 3.12121 1.46725 3.09299C1.48087 2.85839 1.76106 3.11923 1.79336 3.13548C2.08034 3.23553 2.20815 3.13649 2.40986 3.10871C2.45586 3.103 2.37306 2.92294 2.41782 2.91061C2.65168 2.84951 2.8935 2.85162 3.1092 2.93328C3.15687 2.95197 3.11508 3.11446 3.13753 3.13171C3.23421 3.20625 3.25798 2.90049 3.35239 2.96846C3.37202 2.98247 3.35741 3.12087 3.36065 3.13618C3.40886 3.37653 3.46699 3.03976 3.48254 3.0329C3.59938 2.9738 3.68144 3.09335 3.76498 3.18231C3.82229 3.23639 3.87554 3.27974 3.94864 3.27003C3.97207 3.26668 3.94256 3.08575 4.00866 3.08736C4.44937 3.09152 4.97672 3.32791 5.25839 3.72052C5.30185 3.77981 5.18217 3.85503 5.1764 3.87097C5.07438 4.1119 5.31554 3.87034 5.34304 3.8764C5.54064 3.92137 5.44272 4.23006 5.80528 4.02239C5.8871 4.15647 5.96628 4.26003 6.01448 4.30521C6.27549 4.5393 6.65272 4.77564 6.74329 4.9986C6.72615 5.01746 6.60831 5.01996 6.52762 5.10609C6.52211 5.11328 6.60118 5.26125 6.59822 5.27119C6.64791 5.34772 6.47689 5.14485 6.1752 5.02644C6.09859 5.0053 6.47955 5.07622 6.51015 5.06989C6.6165 5.07425 6.85102 5.16234 6.87263 5.15936C7.04656 5.1152 6.23972 4.94535 6.25361 4.87054C6.25545 4.86808 6.40277 4.90622 6.41892 4.90168C6.46969 4.88704 6.41437 4.85201 6.4696 4.83643C6.59692 4.80244 6.99838 4.82578 6.77781 4.70457C6.74898 4.68942 6.28287 4.65339 6.31395 4.56775C6.32701 4.53409 6.33312 4.37098 6.36671 4.32516C6.40039 4.28132 6.54827 4.32425 6.55502 4.32152C6.76313 4.20883 6.842 4.26169 7.14087 4.21703C7.43857 4.17121 6.73787 4.14241 6.66156 4.11077C6.58551 4.07881 6.75571 3.99427 6.81426 3.97412C6.87283 3.95413 6.96652 3.98971 7.00015 3.97074C7.22004 3.84443 6.65678 3.88748 6.54868 3.83437C6.29274 3.70855 6.8171 3.65681 6.87493 3.56102C6.89057 3.535 6.77089 3.54865 6.76157 3.52372C6.72639 3.42454 6.89241 3.37993 6.75358 3.25794C6.73086 3.23878 6.42779 3.11859 6.66203 3.08226C6.69577 3.07737 6.82232 3.11341 6.85537 3.07517C6.90493 3.01739 6.94541 2.91155 6.91125 2.83927C6.88592 2.78607 6.66675 2.81471 6.74092 2.76069C6.77407 2.73705 6.89074 2.80494 6.94266 2.75984C6.99439 2.71406 7.00942 2.58461 7.01477 2.53335C7.01954 2.48314 6.85544 2.48025 6.84542 2.47434C6.7881 2.43916 6.7327 2.32039 6.73521 2.31115C6.77464 2.08865 6.8943 1.87978 7.05258 1.68489C7.21405 1.49618 7.38349 1.33689 7.51873 1.12701C7.53982 1.09522 7.39999 0.994263 7.40194 0.988189C7.44843 0.840413 7.69378 1.23628 7.85556 1.29179C7.61073 1.04667 7.68925 1.05721 7.73277 0.971694C7.7539 0.930338 7.65182 0.840567 7.64603 0.827528C7.57398 0.623735 7.7747 0.803467 7.81385 0.841553C7.96256 0.978263 7.86649 0.760761 7.96394 0.8553C8.05726 0.951508 8.11551 1.14541 8.17461 1.10488C8.12834 0.987609 7.90321 0.745756 7.93204 0.666186C8.05848 0.346393 8.60398 0.415621 8.76981 0.400788C8.9482 0.376567 8.99491 0.342012 9.10158 0.359765C9.22762 0.381578 9.21513 0.295133 9.21295 0.195567C9.2156 0.143129 9.22264 0.0864258 9.26102 0.0385556C9.37919 -0.101023 9.42941 0.494728 9.47327 0.615146C9.51283 0.736886 9.50381 0.605369 9.53496 0.670898C9.56418 0.73681 9.54243 0.82818 9.5856 0.847574C9.62434 0.866725 9.70992 0.630789 9.72269 0.497477C9.74342 0.214589 9.6602 -0.0796589 9.81813 0.020035C9.82654 0.026111 9.80175 0.181975 9.83321 0.197388C10.0791 0.315014 10.3209 0.363876 10.5035 0.539395C10.5276 0.563659 10.4439 0.717615 10.4558 0.733121C10.5697 0.897712 10.6121 0.598213 10.8812 0.372157C10.7506 0.57155 10.6782 0.744488 10.6395 0.861844C10.6084 0.958002 10.5999 1.01693 10.6307 1.04466C10.672 1.08366 10.7938 0.940017 10.9273 0.887204C10.9687 0.872397 10.9083 1.00048 10.9829 0.952269C11.2305 0.799804 11.4493 0.545745 11.4543 0.773485C11.4535 0.783115 11.3097 0.85396 11.3161 0.880167C11.3505 1.0467 11.62 0.907994 11.7373 1.05558C11.8292 1.17262 11.7469 1.4599 11.7635 1.6008C11.3057 1.76063 11.4496 1.83741 11.784 1.78639C11.7984 1.87663 11.8437 1.96346 11.822 2.05805C11.8146 2.09034 11.6741 2.10925 11.6604 2.11684C11.4453 2.23231 11.7692 2.18454 11.7863 2.19941C11.9583 2.36782 11.7544 2.58281 12.0299 2.71998C12.0397 2.72459 12.3721 2.66758 12.1417 2.76821C12.1257 2.77474 11.9629 2.74411 11.9694 2.83444C11.9761 2.92611 11.8309 3.12591 12.0065 3.21901C12.0489 3.24183 12.3318 3.26938 12.1319 3.36701C12.1047 3.38006 12.008 3.38793 11.957 3.40875C11.7947 3.47531 12.1339 3.4383 11.8561 3.53046C11.5783 3.62279 11.3796 3.74715 11.5963 3.83631C11.6026 3.8391 11.8739 3.8256 11.8758 3.86458C11.8785 3.92664 11.8368 4.02378 11.8483 4.08694C11.8539 4.11747 12.0166 4.07243 12.0204 4.07729C12.1451 4.27099 12.019 4.44076 11.9866 4.67159C11.9803 4.71406 12.2232 4.79876 12.0554 4.90297C12.0001 4.93735 11.8866 4.96369 11.7608 4.98838L11.7588 4.95325C11.4612 4.96345 11.1005 4.9556 11.2344 5.09707C11.311 5.17625 12.3522 5.30838 11.8073 5.4375C11.9329 5.72431 11.6466 5.97189 11.824 6.26136C11.8319 6.27458 12.1209 6.32986 12.1153 6.35961C12.1066 6.40383 11.9693 6.41952 11.9586 6.451C11.9102 6.58324 12.019 6.71189 11.9923 6.83684C11.9823 6.88575 11.843 6.8591 11.831 6.91648C11.8191 6.97343 12.0012 7.02463 11.9055 7.09759C11.8327 7.15115 11.4501 7.17759 11.3992 7.2496C11.7712 7.28637 11.7589 7.33816 11.8475 7.44422C11.8647 7.46435 11.9961 7.45787 12.011 7.4681C12.0741 7.50984 11.9634 7.53214 12.0323 7.57439C12.0488 7.58461 12.1757 7.5988 12.1963 7.60801C12.3771 7.68597 12.08 7.75189 12.0285 7.76053C11.8327 7.79693 11.9931 7.8506 11.9128 7.8869C11.8324 7.92288 11.7492 7.84131 11.6968 7.88905C11.5884 7.9887 11.5862 8.13333 11.5588 8.24297C11.5489 8.28546 11.7218 8.28941 11.7242 8.29624C11.7474 8.40244 11.5499 8.44911 11.8638 8.58864C10.999 8.42023 11.9339 8.66703 11.7144 8.76155C11.6964 8.76885 11.3072 8.62498 11.2601 8.57672C11.2126 8.52989 11.3523 8.51884 11.2738 8.44551C11.2564 8.42545 10.8943 8.27077 10.8728 8.25837C10.7072 8.158 11.3156 8.27649 11.3499 8.27945C11.72 8.30757 11.3262 8.13422 11.301 8.10948C11.189 7.98092 11.2881 7.90758 11.207 7.8024C11.1542 7.73651 10.752 7.67781 10.77 7.6347C10.8287 7.49483 11.3987 7.49455 10.924 7.30122C10.8226 7.25954 10.3779 7.2478 10.7356 7.17127C10.7581 7.16731 11.0839 7.10877 10.8864 7.04498C10.8615 7.03685 10.7325 7.02647 10.7223 7.01767C10.6565 6.95903 10.7622 6.92949 10.7172 6.86895C10.6723 6.80743 10.6039 6.7304 10.652 6.66784C10.6808 6.6298 10.9248 6.59074 10.9849 6.5751C11.158 6.53121 10.8831 6.45512 11.0907 6.43167C11.2993 6.40762 11.6093 6.49466 11.748 6.4085C11.4124 6.38696 11.0682 6.36073 10.7308 6.33738C10.7532 6.1391 10.8704 5.94903 10.8631 5.74555C10.8618 5.71997 10.6802 5.73945 10.6742 5.71189C10.6494 5.60223 10.7816 5.50158 10.7336 5.38633C10.6958 5.29544 10.5071 5.18775 10.4611 5.09431C10.6906 5.06543 10.7386 5.00224 10.7475 4.93286L10.7592 5.129C10.7578 5.08169 10.7381 5.03539 10.7464 4.99183C10.7533 4.95421 10.8554 4.94229 10.885 4.91192C10.9939 4.79749 10.6638 4.89102 10.607 4.87215C10.3648 4.79212 11.1251 4.67197 11.0867 4.54112C11.085 4.53426 10.6663 4.50762 10.6393 4.49985C10.4634 4.44961 10.7787 4.46635 10.8017 4.41499C10.8436 4.32138 10.9313 4.24623 10.797 4.16473C10.7573 4.1406 10.4938 4.11128 10.6802 4.02423C10.7045 4.01268 10.8391 3.99532 10.846 3.98804C10.9591 3.85799 10.5381 3.92457 10.3857 3.88749C10.2333 3.85028 10.5076 3.70953 10.5876 3.67503C10.7949 3.5872 10.6867 3.69779 10.7083 3.69656C10.9661 3.68527 10.9109 3.62347 10.9229 3.56679C11.333 3.48688 11.295 3.41639 10.9337 3.50863C10.8942 3.51873 10.9398 3.55283 10.9229 3.56679C10.511 3.59123 10.4456 3.52319 10.8058 3.36534C10.9745 3.29137 11.1878 3.2913 11.0881 3.17822C11.043 3.12733 10.7651 3.20523 10.6783 3.17044C10.4806 3.0934 10.7127 2.8944 10.645 2.78918C10.6207 2.75204 10.4764 2.8269 10.4545 2.80316C10.3958 2.7394 10.4953 2.64872 10.4181 2.59179C10.411 2.58688 10.2554 2.64336 10.2478 2.62243C10.187 2.46543 10.2485 2.29936 10.1993 2.15038C10.175 2.07617 10.0451 1.99701 10.0374 1.93941C10.0259 1.83813 10.1706 1.62645 10.1112 1.64911C10.0796 1.66989 9.96784 1.79194 9.90405 1.88544C9.84607 1.97865 9.91061 1.97667 9.98365 1.93108C10.0595 1.88552 10.1022 1.77729 10.1158 1.75049C10.1181 1.74941 10.1325 1.71309 10.1736 1.63909C10.2513 1.48077 10.1148 1.74916 10.1158 1.75049C10.1396 1.71773 10.1053 1.66339 10.0806 1.68947C10.0691 1.70394 10.027 1.85441 10.0227 1.85939C9.92119 1.97588 9.87825 2.01178 9.81069 1.94257C9.80925 1.93951 9.79887 1.76509 9.79493 1.76013C9.73478 1.687 9.72877 1.90598 9.73587 2.03513C9.73648 2.05513 9.73667 2.07115 9.73604 2.08293C9.65096 2.17007 9.56342 2.12097 9.44646 1.88963C9.37711 1.94702 9.24456 1.8459 9.16848 1.78472C9.09129 1.7238 9.18674 2.05062 9.18473 2.05823C9.12894 2.30218 9.01883 2.1367 8.92141 2.14998C8.87571 2.15541 8.8434 2.23365 8.84577 2.27947C8.84746 2.31576 8.78589 2.26354 8.8053 2.31491C8.80809 2.32162 8.91326 2.4306 8.91672 2.43535C9.03281 2.57495 8.77909 2.30548 8.72925 2.26173C8.54627 2.10478 8.43158 2.03875 8.48678 2.14965C8.49657 2.17856 8.90446 2.52272 8.92791 2.54394C8.95338 2.57659 8.79813 2.46501 8.82691 2.50556C8.82925 2.50895 8.92861 2.57224 8.91924 2.57747C8.90404 2.58676 8.88247 2.59643 8.85955 2.61041C8.8475 2.57709 8.80958 2.59577 8.80423 2.64235C8.80257 2.65219 8.9854 2.69293 8.98642 2.70662C8.99105 2.7701 8.96204 2.8741 8.85829 2.97592C8.83211 3.00109 8.70534 2.96397 8.66595 2.96454C8.42705 2.97175 8.75771 3.078 8.76311 3.08759C8.89731 3.33717 8.57363 3.51192 8.70097 3.81093C8.70852 3.82693 9.06611 3.97287 8.74907 4.00878C8.72798 4.01098 8.40366 4.04656 8.61978 4.11042C8.6333 4.11442 8.8007 4.08973 8.77992 4.15014C8.75919 4.21036 8.86283 4.31949 8.67502 4.3972C8.61576 4.42269 8.29156 4.46227 8.53912 4.57134C8.55678 4.57608 9.12029 4.76898 8.71778 4.78538C8.65139 4.78851 8.23342 4.73348 8.43617 4.87043C8.47534 4.89734 8.57355 4.86693 8.62511 4.93311C8.70436 5.03484 8.57666 5.14384 8.73632 5.31794C8.76571 5.34337 9.02452 5.51845 8.78754 5.57368C8.75061 5.58147 8.62106 5.51863 8.59281 5.56725C8.52182 5.69045 8.48784 5.8343 8.39517 6.04496C8.29881 6.23962 8.15375 6.58314 7.62092 6.88383C7.21862 7.06344 7.31464 6.77792 6.91216 6.82348C6.56493 6.84928 6.18076 6.70473 5.98889 6.64211C5.94011 6.62939 5.90185 6.62643 5.8661 6.63345C5.71435 6.66864 5.64229 7.04583 5.48226 6.9856C4.91506 6.77469 4.81178 6.40088 4.52569 6.12913C4.51775 6.12135 4.50955 6.12011 4.50099 6.12276C4.45106 6.12037 4.41778 6.20474 4.32019 6.12013C4.10146 5.92504 3.9495 5.79541 3.89006 5.73635C3.82862 5.67306 3.8518 5.64623 3.91122 5.51922C3.995 5.31149 4.13304 5.19807 4.1385 5.0967C4.13098 5.04304 3.92103 5.41051 3.91636 5.42306C3.8367 5.53481 3.87576 5.35025 3.80549 5.39152C3.79226 5.4006 3.76258 5.56933 3.75313 5.57557C3.72275 5.59893 3.70282 5.51773 3.66388 5.52679C3.64654 5.53132 3.6342 5.66141 3.62106 5.64981C3.6079 5.63895 3.59466 5.62271 3.58062 5.59852C3.54726 5.56343 3.51574 5.51268 3.48263 5.43904C3.47718 5.42755 3.52702 5.26767 3.47758 5.25878C3.39864 5.24497 3.30066 5.12077 3.21139 5.24525C3.18492 5.28276 3.18603 5.58106 3.13157 5.37558C3.12045 5.33277 3.12595 4.97382 3.07111 5.28515C3.05794 5.33683 2.98845 5.75792 2.92917 5.49296C2.91324 5.42309 2.85549 5.1336 2.8323 5.18242C2.82968 5.1901 2.85995 5.34812 2.84097 5.36589C2.77541 5.42561 2.70628 5.41983 2.66819 5.47998C2.65909 5.49615 2.71277 5.65404 2.70086 5.67239C2.66922 5.72286 2.64282 5.6902 2.63528 5.63641C2.63231 5.6162 2.5672 5.49503 2.56141 5.48121C2.45033 5.26481 2.60678 5.55352 2.6238 5.56582C2.64241 5.58475 2.6563 5.59048 2.66614 5.58857C2.63233 5.62724 2.55218 5.57943 2.54709 5.62339C2.54577 5.63817 2.64803 5.757 2.65512 5.76917C2.7291 5.88463 2.56183 5.65833 2.53433 5.64073C2.45647 5.59038 2.46089 5.60943 2.50795 5.58349C2.52587 5.57276 2.65456 5.70329 2.67222 5.68784C2.7553 5.62643 2.88063 5.36365 2.84657 5.12907C2.82807 5.17167 2.80505 5.21166 2.77691 5.24868C2.75667 5.2748 2.61764 5.25259 2.58551 5.25706C2.36054 5.29137 2.66453 5.35322 2.69367 5.36133C2.82628 5.40798 2.70334 5.42386 2.72787 5.45013C2.77085 5.49321 2.82111 5.49633 2.71696 5.26037C2.61402 5.08883 2.70065 5.30793 2.76462 5.40572C2.9292 5.66936 3.09039 5.97732 3.41873 6.18013C3.43941 6.19301 3.53089 6.02925 3.54996 6.03828C3.75156 6.14154 3.91188 6.30618 4.11595 6.42281C4.1637 6.45062 4.21302 6.47668 4.26379 6.49941C4.2883 6.51077 4.35372 6.34258 4.39623 6.35581C4.48403 6.38186 4.56951 6.45025 4.61006 6.54482C4.62985 6.59055 4.49938 6.6855 4.52103 6.72897C4.5715 6.83063 4.65124 6.89863 4.74914 6.92937C4.79096 6.94209 4.83754 6.75679 4.88405 6.78497C5.20279 6.97347 5.50745 7.133 5.67432 7.50144C5.68547 7.52652 5.51913 7.85385 5.59704 7.8175C5.65076 7.73106 5.70998 7.62709 5.76529 7.53349C5.98424 7.62474 6.17712 7.74256 6.28226 7.81193C6.50171 7.92426 6.72094 8.03962 6.95107 8.1254C6.9711 8.13281 6.99686 7.93689 7.03557 7.95014C7.25893 8.02609 7.48817 8.03906 7.66638 8.28763C7.68381 8.31189 7.58341 8.63877 7.66588 8.60727C7.68007 8.60139 7.79605 8.58446 7.83989 8.5189C7.84617 8.50895 7.86682 8.34972 7.90041 8.35338C8.09605 8.37753 8.28212 8.4566 8.44746 8.58726C8.4743 8.60867 8.41085 8.76948 8.42995 8.78621C8.56688 8.90379 8.75058 8.80205 8.85608 8.96832C8.92705 9.07987 8.86852 9.36896 8.89488 9.66092C8.90005 9.70235 8.95356 9.71171 8.95046 9.87957C8.9477 10.3025 8.88892 10.7635 8.88818 11.2144C8.88249 11.3124 9.05864 11.2096 8.95265 11.4432C8.94115 11.4594 8.82219 11.5327 8.79348 11.6101C8.77104 11.6638 8.7954 11.8367 8.75044 11.9043C8.70718 11.9719 8.67586 11.8257 8.61274 11.9028C8.54606 11.9803 8.55227 12.177 8.43616 12.1868ZM8.82499 1.52052C8.71801 1.3869 8.93765 1.9434 8.92662 1.79401C8.92585 1.78613 8.83018 1.52711 8.82499 1.52052ZM11.3208 5.96679C11.5878 5.89733 11.2023 5.82529 10.9964 5.87478C10.7908 5.92314 11.2398 5.98815 11.3208 5.96679ZM11.4666 6.82704C11.6807 6.74538 10.8352 6.67554 10.9995 6.78601C11.0088 6.79261 11.4541 6.83188 11.4666 6.82704ZM8.63718 9.71563C8.63727 9.72371 8.68239 9.73748 8.68469 9.72979C8.73268 9.54449 8.6449 9.51745 8.63718 9.71563ZM11.5979 7.68584C11.7155 7.66954 11.5937 7.56794 11.4478 7.58854C11.3304 7.60515 11.4518 7.70514 11.5979 7.68584ZM7.16638 3.57896C7.15741 3.57932 7.14682 3.61558 7.19714 3.61835C7.35921 3.62702 7.3171 3.57304 7.16638 3.57896ZM11.2297 8.86692C11.3137 8.82746 11.4717 8.91319 11.6181 8.99739L11.6268 8.98781C11.7181 9.02706 11.8035 9.07017 11.8197 9.14542L11.7948 9.17302C11.8119 9.22654 11.7889 9.28452 11.7177 9.31772C11.6679 9.34061 11.6638 9.07092 11.5705 9.06739C11.4195 9.04531 11.6084 9.44649 11.3902 9.30907C11.3513 9.28322 11.2221 8.86878 11.2294 8.86592C11.2295 8.86625 11.2296 8.86659 11.2297 8.86692ZM8.53399 0.862797C8.52989 0.855799 8.47943 0.868245 8.48138 0.87605C8.53058 1.06108 8.62556 1.03874 8.53399 0.862797ZM6.64445 5.24718C6.64645 5.23808 6.64988 5.23064 6.64053 5.22249C6.63099 5.21479 6.6134 5.2058 6.60899 5.21145C6.51465 5.33114 6.50274 5.42366 6.53575 5.45075C6.57872 5.48207 6.61741 5.41244 6.64445 5.24718ZM11.752 1.60717C11.9521 1.59978 11.9988 1.66912 11.7841 1.78606C11.7787 1.72684 11.7607 1.66716 11.752 1.60717Z" fill="#161616"/>
</svg>
