<svg width="588" height="587" viewBox="0 0 588 587" fill="none" xmlns="http://www.w3.org/2000/svg">
<g opacity="0.5">
<mask id="path-1-inside-1_7_494" fill="white">
<path d="M0 293.5C0 455.596 131.904 587 294 587V587C456.096 587 588 455.596 588 293.5V293.5C588 131.404 456.096 0 294 0V0C131.904 0 0 131.404 0 293.5V293.5Z"/>
</mask>
<g clip-path="url(#paint0_angular_7_494_clip_path)" data-figma-skip-parse="true" mask="url(#path-1-inside-1_7_494)"><g transform="matrix(0 -0.2935 -0.294 0 294 293.5)"><foreignObject x="-1005.11" y="-1005.11" width="2010.22" height="2010.22"><div xmlns="http://www.w3.org/1999/xhtml" style="background:conic-gradient(from 90deg,rgba(255, 255, 255, 0.1498) 0deg,rgba(255, 255, 255, 0) 60.8264deg,rgba(255, 255, 255, 0) 289.834deg,rgba(255, 255, 255, 0.15) 359.91deg,rgba(255, 255, 255, 0.1498) 360deg);height:100%;width:100%;opacity:1"></div></foreignObject></g></g><path d="M0 293.5M588 293.5M588 293.5M0 293.5M294 587M588 293.5M294 0M0 293.5M294 0V1.5C132.73 1.5 1.5 132.236 1.5 293.5H0H-1.5C-1.5 130.573 131.079 -1.5 294 -1.5V0ZM588 293.5H586.5C586.5 132.236 455.27 1.5 294 1.5V0V-1.5C456.921 -1.5 589.5 130.573 589.5 293.5H588ZM294 587V585.5C455.27 585.5 586.5 454.764 586.5 293.5H588H589.5C589.5 456.427 456.921 588.5 294 588.5V587ZM294 587V588.5C131.079 588.5 -1.5 456.427 -1.5 293.5H0H1.5C1.5 454.764 132.73 585.5 294 585.5V587Z" data-figma-gradient-fill="{&#34;type&#34;:&#34;GRADIENT_ANGULAR&#34;,&#34;stops&#34;:[{&#34;color&#34;:{&#34;r&#34;:1.0,&#34;g&#34;:1.0,&#34;b&#34;:1.0,&#34;a&#34;:0.0},&#34;position&#34;:0.16896228492259979},{&#34;color&#34;:{&#34;r&#34;:1.0,&#34;g&#34;:1.0,&#34;b&#34;:1.0,&#34;a&#34;:0.0},&#34;position&#34;:0.80509352684020996},{&#34;color&#34;:{&#34;r&#34;:1.0,&#34;g&#34;:1.0,&#34;b&#34;:1.0,&#34;a&#34;:0.15000000596046448},&#34;position&#34;:0.99975025653839111}],&#34;stopsVar&#34;:[{&#34;color&#34;:{&#34;r&#34;:1.0,&#34;g&#34;:1.0,&#34;b&#34;:1.0,&#34;a&#34;:0.0},&#34;position&#34;:0.16896228492259979},{&#34;color&#34;:{&#34;r&#34;:1.0,&#34;g&#34;:1.0,&#34;b&#34;:1.0,&#34;a&#34;:0.0},&#34;position&#34;:0.80509352684020996},{&#34;color&#34;:{&#34;r&#34;:1.0,&#34;g&#34;:1.0,&#34;b&#34;:1.0,&#34;a&#34;:0.15000000596046448},&#34;position&#34;:0.99975025653839111}],&#34;transform&#34;:{&#34;m00&#34;:3.6004616036635836e-14,&#34;m01&#34;:-588.0,&#34;m02&#34;:588.0,&#34;m10&#34;:-587.0,&#34;m11&#34;:-3.5943385718944718e-14,&#34;m12&#34;:587.0},&#34;opacity&#34;:1.0,&#34;blendMode&#34;:&#34;NORMAL&#34;,&#34;visible&#34;:true}" mask="url(#path-1-inside-1_7_494)"/>
</g>
<defs>
<clipPath id="paint0_angular_7_494_clip_path"><path d="M0 293.5M588 293.5M588 293.5M0 293.5M294 587M588 293.5M294 0M0 293.5M294 0V1.5C132.73 1.5 1.5 132.236 1.5 293.5H0H-1.5C-1.5 130.573 131.079 -1.5 294 -1.5V0ZM588 293.5H586.5C586.5 132.236 455.27 1.5 294 1.5V0V-1.5C456.921 -1.5 589.5 130.573 589.5 293.5H588ZM294 587V585.5C455.27 585.5 586.5 454.764 586.5 293.5H588H589.5C589.5 456.427 456.921 588.5 294 588.5V587ZM294 587V588.5C131.079 588.5 -1.5 456.427 -1.5 293.5H0H1.5C1.5 454.764 132.73 585.5 294 585.5V587Z" mask="url(#path-1-inside-1_7_494)"/></clipPath></defs>
</svg>
