<svg width="27" height="27" viewBox="0 0 27 27" fill="none" xmlns="http://www.w3.org/2000/svg">
<path d="M13.3044 20.5109C17.2845 20.5109 20.5109 17.2845 20.5109 13.3044C20.5109 9.32437 17.2845 6.0979 13.3044 6.0979C9.32437 6.0979 6.0979 9.32437 6.0979 13.3044C6.0979 17.2845 9.32437 20.5109 13.3044 20.5109Z" stroke="#7985A8" stroke-width="2" stroke-linecap="round" stroke-linejoin="round"/>
<path d="M21.2203 21.2203L21.0762 21.0762M21.0762 5.53229L21.2203 5.38816L21.0762 5.53229ZM5.38816 21.2203L5.53229 21.0762L5.38816 21.2203ZM13.3042 2.30598V2.21729V2.30598ZM13.3042 24.3912V24.3025V24.3912ZM2.30598 13.3042H2.21729H2.30598ZM24.3912 13.3042H24.3025H24.3912ZM5.53229 5.53229L5.38816 5.38816L5.53229 5.53229Z" stroke="#7985A8" stroke-width="2.8" stroke-linecap="round" stroke-linejoin="round"/>
</svg>
